<svg xmlns="http://www.w3.org/2000/svg" width="281" height="13" viewBox="0 0 281 13" fill="none"><mask id="mask0_1544_117" style="mask-type:luminance" maskUnits="userSpaceOnUse" x="0" y="0" width="21" height="12"><path d="M20.1188 0.908203H0.907227V11.8507H20.1188V0.908203Z" fill="white"></path></mask><g mask="url(#mask0_1544_117)"><path d="M0.907227 0.908203H1.12439V6.67442H0.907227V0.908203ZM1.34156 0.908203H1.55873V6.67442H1.34156V0.908203ZM2.64554 0.908203H2.8627V6.67442H2.64554V0.908203ZM6.87269 0.908203H7.0899V6.67442H6.87269V0.908203ZM8.2859 0.908203H8.503V6.67442H8.2859V0.908203ZM9.6562 0.908203H9.8734V6.67442H9.6562V0.908203ZM10.0094 0.908203H10.2266V6.67442H10.0097L10.0094 0.908203ZM10.3631 0.908203H10.5802V6.67442H10.3631V0.908203ZM10.7605 0.908203H10.9777V6.67442H10.7606L10.7605 0.908203ZM11.1579 0.908203H11.3751V6.67442H11.1579V0.908203ZM12.2627 0.908203H12.4799V6.67442H12.2624L12.2627 0.908203ZM15.0019 0.908203H15.2191V6.67442H15.0019V0.908203ZM17.8593 0.908203H18.0763V6.67442H17.8592L17.8593 0.908203ZM18.6408 0.908203H18.858V6.67442H18.6408V0.908203ZM19.2058 0.908203H19.423V6.67442H19.2058V0.908203ZM19.5535 0.908203H19.7706V6.67442H19.5535V0.908203ZM4.07969 0.908203H4.29686V6.67442H4.07969V0.908203ZM1.9066 0.908203H2.29767V6.67442H1.9066V0.908203ZM4.48726 0.908203H4.87825V6.67442H4.48726V0.908203ZM6.29932 0.908203H6.69031V6.67442H6.29932V0.908203ZM7.227 0.908203H7.618V6.67442H7.227V0.908203ZM8.685 0.908203H9.076V6.67442H8.685V0.908203ZM12.8416 0.908203H13.4497V6.67442H12.8416V0.908203ZM13.636 0.908203H14.1136V6.67442H13.6354L13.636 0.908203ZM14.4742 0.908203H14.8652V6.67442H14.4742V0.908203ZM15.5827 0.908203H16.2346V6.67442H15.5827V0.908203ZM16.8594 0.908203H17.5114V6.67442H16.8594V0.908203ZM3.08009 0.908203H3.86208V6.67442H3.08009V0.908203ZM5.10694 0.908203H5.7151V6.67442H5.10694V0.908203Z" fill="white"></path><path d="M1.18457 11.7935V8.49311H2.42304C2.63 8.48511 2.83643 8.51921 3.02987 8.59321C3.17813 8.65661 3.30312 8.76431 3.38763 8.90161C3.47139 9.03161 3.51634 9.18271 3.51721 9.33731C3.51722 9.47831 3.47743 9.61641 3.40242 9.73571C3.31791 9.86721 3.19761 9.97181 3.05567 10.0372C3.23783 10.0841 3.39969 10.1891 3.51662 10.3365C3.62482 10.4803 3.68148 10.6564 3.6775 10.8363C3.67879 10.9857 3.64532 11.1333 3.57974 11.2675C3.5243 11.3878 3.44102 11.4933 3.33677 11.575C3.22827 11.6529 3.10541 11.7085 2.9753 11.7386C2.80084 11.7786 2.62215 11.7972 2.44319 11.7939L1.18457 11.7935ZM1.62173 9.88011H2.33547C2.47486 9.88551 2.61436 9.87261 2.7504 9.84181C2.84997 9.81651 2.93825 9.75871 3.00124 9.67761C3.05989 9.59321 3.08951 9.49211 3.08563 9.38941C3.08764 9.28751 3.06028 9.18721 3.00682 9.10041C2.95581 9.01801 2.87651 8.95701 2.78378 8.92891C2.61923 8.89101 2.45033 8.87551 2.28164 8.88271H1.62188L1.62173 9.88011ZM1.62173 11.4042H2.44334C2.54273 11.4068 2.64216 11.4016 2.74073 11.3886C2.82988 11.3741 2.91547 11.3428 2.99292 11.2963C3.06369 11.2506 3.12112 11.187 3.15938 11.1119C3.20406 11.0266 3.22658 10.9315 3.22488 10.8353C3.22795 10.7204 3.1949 10.6075 3.13038 10.5124C3.06669 10.4212 2.97434 10.3539 2.86801 10.3212C2.71078 10.2786 2.54805 10.26 2.38528 10.2658H1.62173V11.4042ZM4.31577 10.1864C4.28808 9.71611 4.44652 9.25381 4.75688 8.89931C4.90315 8.74571 5.08033 8.62491 5.27672 8.54481C5.47312 8.46461 5.68427 8.42711 5.89625 8.43451C6.18571 8.43061 6.47071 8.50621 6.72016 8.65311C6.96264 8.79641 7.1573 9.00841 7.2795 9.26221C7.4112 9.53861 7.477 9.84181 7.4717 10.1479C7.4773 10.4592 7.408 10.7672 7.2698 11.0461C7.1443 11.2999 6.94394 11.5091 6.69577 11.6455C6.45044 11.7808 6.17454 11.8509 5.89439 11.8493C5.60125 11.8541 5.31268 11.7763 5.0617 11.6248C4.82022 11.4784 4.62679 11.2646 4.50521 11.0097C4.37985 10.7534 4.31503 10.4717 4.31577 10.1864ZM4.76624 10.1933C4.7475 10.5368 4.86327 10.874 5.08898 11.1335C5.19081 11.245 5.31537 11.3333 5.45426 11.3926C5.59315 11.4518 5.74313 11.4806 5.89409 11.477C6.04594 11.4808 6.19684 11.4518 6.33642 11.3918C6.476 11.3319 6.60097 11.2425 6.70276 11.1297C6.93051 10.8544 7.0445 10.5024 7.0214 10.1458C7.0274 9.90441 6.98169 9.66451 6.88722 9.44221C6.80396 9.25051 6.66521 9.08821 6.48887 8.97611C6.31263 8.86531 6.10816 8.80791 5.90003 8.81061C5.75255 8.80831 5.60609 8.83531 5.46911 8.89001C5.33212 8.94471 5.20732 9.02601 5.10192 9.12911C4.97722 9.27471 4.8832 9.44391 4.82552 9.62671C4.76784 9.80951 4.74767 10.0026 4.76624 10.1933ZM8.1879 11.7937V8.49311H8.6246V11.4039H10.2499V11.7935L8.1879 11.7937ZM10.9498 11.7937V8.49311H13.3363V8.88271H11.3864V9.89381H13.2123V10.2811H11.3864V11.4042H13.4129V11.7939L10.9498 11.7937ZM15.0267 11.7937V8.88271H13.9387V8.49311H16.5549V8.88271H15.463V11.7935L15.0267 11.7937ZM16.9576 10.1864C16.9303 9.71601 17.0891 9.25381 17.3998 8.89961C17.5461 8.74591 17.7232 8.62511 17.9196 8.54501C18.116 8.46491 18.3272 8.42731 18.5391 8.43471C18.8286 8.43081 19.1136 8.50641 19.363 8.65331C19.6055 8.79661 19.8002 9.00861 19.9223 9.26241C20.0541 9.53881 20.12 9.84201 20.1146 10.1481C20.12 10.4594 20.0506 10.7675 19.9122 11.0463C19.7863 11.3006 19.5853 11.51 19.3363 11.6462C19.091 11.7814 18.8151 11.8516 18.535 11.85C18.2416 11.8548 17.9529 11.7768 17.7018 11.625C17.4608 11.4784 17.2679 11.2646 17.1467 11.0099C17.0214 10.7535 16.9567 10.4718 16.9576 10.1864ZM17.4081 10.1933C17.3893 10.5368 17.5051 10.874 17.7308 11.1335C17.8326 11.245 17.9572 11.3333 18.0961 11.3926C18.235 11.4518 18.385 11.4806 18.5359 11.477C18.6882 11.4813 18.8396 11.4525 18.9797 11.3926C19.1198 11.3328 19.2453 11.2432 19.3474 11.1302C19.5752 10.8548 19.6891 10.5029 19.666 10.1463C19.6707 9.90461 19.6236 9.66461 19.5276 9.44271C19.4444 9.25101 19.3056 9.08871 19.1293 8.97651C18.9531 8.86591 18.7488 8.80841 18.5408 8.81101C18.3933 8.80881 18.2469 8.83581 18.1099 8.89051C17.9729 8.94511 17.8481 9.02641 17.7426 9.12961C17.6182 9.27521 17.5244 9.44441 17.4669 9.62711C17.4094 9.80971 17.3894 10.0026 17.4081 10.1933Z" fill="white"></path></g><path fill-rule="evenodd" clip-rule="evenodd" d="M33.7739 9.70741H32.1166L30.8739 4.96625C30.8149 4.74816 30.6896 4.55536 30.5054 4.46448C30.0456 4.23612 29.539 4.05438 28.9863 3.96272V3.78018H31.656C32.0245 3.78018 32.3008 4.05438 32.3469 4.37282L32.9917 7.7928L34.6481 3.78018H36.2593L33.7739 9.70741ZM37.1804 9.70741H35.6153L36.9041 3.78018H38.4692L37.1804 9.70741ZM40.4941 5.42227C40.5402 5.10303 40.8165 4.9205 41.1389 4.9205C41.6456 4.87467 42.1975 4.96633 42.658 5.1939L42.9344 3.91775C42.4738 3.73522 41.9672 3.64355 41.5074 3.64355C39.9883 3.64355 38.8829 4.46456 38.8829 5.60401C38.8829 6.47084 39.6659 6.92599 40.2186 7.2002C40.8165 7.4736 41.0468 7.6561 41.0008 7.9295C41.0008 8.3396 40.5402 8.5222 40.0804 8.5222C39.5277 8.5222 38.9751 8.3855 38.4692 8.1571L38.1929 9.434C38.7456 9.6616 39.3435 9.7533 39.8962 9.7533C41.5995 9.7983 42.658 8.9781 42.658 7.747C42.658 6.19665 40.4941 6.10578 40.4941 5.42227ZM48.1356 9.70741L46.8928 3.78018H45.558C45.2817 3.78018 45.0053 3.96272 44.9132 4.23612L42.6119 9.70741H44.2231L44.5447 8.8413H46.5244L46.7086 9.70741H48.1356ZM45.7883 5.37641L46.248 7.6103H44.9592L45.7883 5.37641Z" fill="white"></path><path fill-rule="evenodd" clip-rule="evenodd" d="M71.2731 11.699C74.2187 11.699 76.6066 9.2834 76.6066 6.30362C76.6066 3.32381 74.2187 0.908203 71.2731 0.908203C69.9529 0.908203 68.7448 1.39341 67.8134 2.19715C66.8821 1.39351 65.6741 0.908383 64.354 0.908383C61.4084 0.908383 59.0205 3.32399 59.0205 6.30379C59.0205 9.2836 61.4084 11.6992 64.354 11.6992C65.6742 11.6992 66.8823 11.214 67.8136 10.4103C68.745 11.2139 69.953 11.699 71.2731 11.699Z" fill="#949494"></path><path fill-rule="evenodd" clip-rule="evenodd" d="M67.8135 10.4101C68.9602 9.4205 69.6874 7.948 69.6874 6.30362C69.6874 4.65928 68.9602 3.18674 67.8135 2.19712C68.7448 1.3934 69.9529 0.908203 71.2731 0.908203C74.2187 0.908203 76.6066 3.32381 76.6066 6.30362C76.6066 9.2834 74.2187 11.699 71.2731 11.699C69.9529 11.699 68.7448 11.2138 67.8135 10.4101Z" fill="#F4F4F4"></path><path fill-rule="evenodd" clip-rule="evenodd" d="M67.8134 10.4103C68.9601 9.42058 69.6873 7.94809 69.6873 6.30376C69.6873 4.65942 68.9601 3.18689 67.8134 2.19727C66.6666 3.18689 65.9395 4.65942 65.9395 6.30376C65.9395 7.94809 66.6666 9.42058 67.8134 10.4103Z" fill="#494949"></path><path fill-rule="evenodd" clip-rule="evenodd" d="M87.3144 3.64355L84.7549 9.3077H87.819L88.1988 8.4046H89.0671L89.447 9.3077H92.8197V8.6184L93.1202 9.3077H94.8648L95.1653 8.6038V9.3077H102.179L103.032 8.42801L103.831 9.3077L107.433 9.31491L104.866 6.49142L107.433 3.64355H103.887L103.056 4.50694L102.283 3.64355H94.6527L93.9974 5.10551L93.3268 3.64355H90.2691V4.30937L89.929 3.64355H87.3144ZM97.7885 4.44796H101.816L103.048 5.77872L104.32 4.44796H105.552L103.68 6.49072L105.552 8.5099H104.264L103.032 7.1637L101.754 8.5099H97.7885V4.44796ZM98.7835 6.03138V5.28943L101.296 5.28872L102.393 6.4753L101.248 7.6683H98.7835V6.85835H100.981V6.03138H98.7835ZM87.9074 4.44796H89.401L91.0987 8.28881V4.44796H92.7348L94.0461 7.20181L95.2546 4.44796H96.8826V8.5123H95.892L95.8839 5.32751L94.4398 8.5123H93.5536L92.1014 5.32751V8.5123H90.0635L89.6772 7.6011H87.5899L87.2044 8.51151H86.1125L87.9074 4.44796ZM87.9463 6.75887L88.634 5.13568L89.3208 6.75887H87.9463Z" fill="white"></path><path d="M122.561 9.42928V5.39608C122.561 5.21964 122.596 5.04492 122.663 4.88191C122.731 4.7189 122.83 4.57079 122.955 4.44605C123.079 4.3213 123.228 4.22236 123.391 4.15487C123.554 4.08738 123.728 4.05267 123.905 4.05273H125.094C125.45 4.05346 125.79 4.19515 126.041 4.4467C126.292 4.69825 126.433 5.03912 126.433 5.3945V6.25293C126.433 6.60932 126.292 6.9511 126.04 7.20308C125.788 7.45508 125.446 7.59668 125.09 7.59668H123.407" stroke="white" stroke-width="0.293331" stroke-linecap="round" stroke-linejoin="round"></path><path d="M126.767 4.05176H127.283C127.429 4.05176 127.569 4.10987 127.673 4.2133C127.776 4.31674 127.834 4.45702 127.834 4.6033V7.61669" stroke="white" stroke-width="0.293331" stroke-linecap="round" stroke-linejoin="round"></path><path d="M127.723 3.5848L127.489 3.35046C127.475 3.33665 127.464 3.32024 127.457 3.30218C127.449 3.28411 127.445 3.26475 127.445 3.24519C127.445 3.22563 127.449 3.20627 127.457 3.1882C127.464 3.17014 127.475 3.15373 127.489 3.13992L127.723 2.90598C127.737 2.89213 127.753 2.88115 127.771 2.87365C127.789 2.86615 127.809 2.8623 127.828 2.8623C127.848 2.8623 127.867 2.86615 127.885 2.87365C127.903 2.88115 127.92 2.89213 127.933 2.90598L128.168 3.13992C128.182 3.15373 128.193 3.17014 128.2 3.1882C128.208 3.20627 128.211 3.22563 128.211 3.24519C128.211 3.26475 128.208 3.28411 128.2 3.30218C128.193 3.32024 128.182 3.33665 128.168 3.35046L127.933 3.5848C127.92 3.59864 127.903 3.60963 127.885 3.61712C127.867 3.62462 127.848 3.62848 127.828 3.62848C127.809 3.62848 127.789 3.62462 127.771 3.61712C127.753 3.60963 127.737 3.59864 127.723 3.5848Z" fill="white"></path><path d="M128.826 4.04883H129.338C129.602 4.04887 129.855 4.15356 130.041 4.33986L131.239 5.5377C131.276 5.57469 131.32 5.60403 131.368 5.62406C131.416 5.64408 131.468 5.65439 131.52 5.65439C131.572 5.65439 131.624 5.64408 131.672 5.62406C131.721 5.60403 131.764 5.57469 131.801 5.5377L132.996 4.34422C133.088 4.25194 133.198 4.17874 133.319 4.1288C133.439 4.07886 133.568 4.05317 133.699 4.05319H134.115" stroke="white" stroke-width="0.293331" stroke-linecap="round" stroke-linejoin="round"></path><path d="M128.826 7.58959H129.338C129.602 7.58949 129.855 7.48479 130.041 7.29849L131.239 6.10106C131.276 6.06408 131.32 6.03473 131.368 6.01471C131.416 5.99468 131.468 5.98438 131.52 5.98438C131.572 5.98438 131.624 5.99468 131.672 6.01471C131.721 6.03473 131.764 6.06408 131.801 6.10106L132.996 7.29419C133.088 7.38639 133.198 7.45959 133.319 7.50959C133.439 7.55949 133.568 7.58519 133.699 7.58519H134.115" stroke="white" stroke-width="0.293331" stroke-linecap="round" stroke-linejoin="round"></path><path d="M119.507 8.35444C119.381 8.35484 119.255 8.33014 119.139 8.28174C119.022 8.23334 118.916 8.16224 118.826 8.07254L117.844 7.09204C117.809 7.05864 117.763 7.04004 117.714 7.04004C117.666 7.04004 117.62 7.05864 117.585 7.09204L116.599 8.07814C116.51 8.16784 116.404 8.23894 116.287 8.28734C116.17 8.33574 116.045 8.36044 115.918 8.36004H115.725L116.969 9.60504C117.156 9.79164 117.409 9.89644 117.673 9.89644C117.937 9.89644 118.19 9.79164 118.377 9.60504L119.625 8.35644L119.507 8.35444Z" fill="white"></path><path d="M115.918 4.87818C116.045 4.87789 116.17 4.90265 116.287 4.95103C116.404 4.99942 116.51 5.07048 116.599 5.1601L117.586 6.1466C117.62 6.18076 117.666 6.19995 117.715 6.19995C117.763 6.19995 117.809 6.18076 117.844 6.1466L118.827 5.16367C118.916 5.07404 119.022 5.00299 119.139 4.9546C119.256 4.90621 119.381 4.88145 119.507 4.88175H119.626L118.378 3.63355C118.286 3.54106 118.176 3.46769 118.055 3.41763C117.934 3.36756 117.805 3.3418 117.674 3.3418C117.543 3.3418 117.414 3.36756 117.293 3.41763C117.172 3.46769 117.063 3.54106 116.97 3.63355L115.726 4.87818H115.918Z" fill="white"></path><path d="M120.658 5.91339L119.905 5.16003C119.888 5.16684 119.87 5.17047 119.851 5.17073H119.508C119.33 5.17148 119.159 5.24273 119.032 5.36899L118.048 6.34994C118.004 6.39376 117.952 6.42851 117.895 6.45219C117.838 6.47587 117.776 6.48801 117.714 6.48792C117.589 6.48814 117.469 6.43865 117.381 6.35034L116.394 5.36383C116.268 5.23758 116.097 5.16632 115.918 5.16558H115.497C115.479 5.16526 115.462 5.16177 115.446 5.15527L114.689 5.91259C114.596 6.00502 114.523 6.11477 114.473 6.23556C114.423 6.35636 114.397 6.48583 114.397 6.61659C114.397 6.74735 114.423 6.87682 114.473 6.99762C114.523 7.11841 114.596 7.22811 114.689 7.32061L115.446 8.07791C115.462 8.07141 115.479 8.06791 115.497 8.06761H115.918C116.097 8.06671 116.268 7.99551 116.394 7.86931L117.381 6.88284C117.471 6.79706 117.59 6.7492 117.714 6.7492C117.839 6.7492 117.958 6.79706 118.048 6.88284L119.031 7.86581C119.157 7.99191 119.328 8.06311 119.507 8.06401H119.85C119.868 8.06421 119.886 8.06801 119.903 8.07511L120.657 7.32181C120.843 7.13501 120.948 6.88179 120.948 6.61778C120.948 6.35376 120.843 6.10055 120.657 5.91378" fill="white"></path><path d="M123.585 9.08557C123.523 9.08837 123.461 9.09778 123.401 9.11378V9.35958C123.447 9.37588 123.495 9.38397 123.544 9.38377C123.668 9.38377 123.726 9.34207 123.726 9.23347C123.726 9.13157 123.678 9.08557 123.585 9.08557ZM123.359 9.54197V9.05628H123.393L123.397 9.07728C123.459 9.06048 123.524 9.05008 123.589 9.04638C123.634 9.04318 123.679 9.05617 123.715 9.08277C123.735 9.10217 123.75 9.12578 123.76 9.15188C123.769 9.17788 123.773 9.20577 123.77 9.23347C123.773 9.26437 123.767 9.29527 123.753 9.32287C123.739 9.35047 123.717 9.37377 123.691 9.39007C123.647 9.41197 123.598 9.42287 123.548 9.42177C123.498 9.42147 123.448 9.41388 123.4 9.39918V9.54197H123.359Z" fill="white"></path><path d="M124.08 9.08508C123.956 9.08508 123.902 9.12478 123.902 9.23218C123.902 9.33968 123.956 9.38448 124.08 9.38448C124.203 9.38448 124.257 9.34478 124.257 9.23778C124.257 9.13068 124.203 9.08508 124.08 9.08508ZM124.238 9.38448C124.191 9.41378 124.135 9.42768 124.08 9.42408C124.024 9.42748 123.969 9.41358 123.921 9.38448C123.899 9.36678 123.882 9.34388 123.87 9.31778C123.859 9.29168 123.855 9.26318 123.858 9.23498C123.855 9.20668 123.86 9.17828 123.871 9.15208C123.882 9.12598 123.899 9.10298 123.921 9.08508C123.969 9.05578 124.024 9.04188 124.08 9.04548C124.135 9.04198 124.191 9.05588 124.238 9.08508C124.26 9.10278 124.278 9.12568 124.289 9.15168C124.3 9.17768 124.304 9.20608 124.302 9.23418C124.305 9.26258 124.3 9.29108 124.289 9.31738C124.278 9.34358 124.261 9.36668 124.238 9.38448Z" fill="white"></path><path d="M124.821 9.41246L124.684 9.11746H124.681L124.546 9.41246H124.511L124.364 9.05566H124.41L124.532 9.35416H124.535L124.667 9.05566H124.707L124.843 9.35416H124.846L124.965 9.05566H125.009L124.863 9.41246H124.821Z" fill="white"></path><path d="M125.271 9.08292C125.157 9.08292 125.119 9.13362 125.113 9.20702H125.432C125.429 9.12572 125.388 9.08292 125.274 9.08292H125.271ZM125.274 9.42112C125.221 9.42672 125.169 9.41252 125.126 9.38142C125.105 9.36272 125.089 9.33952 125.079 9.31372C125.069 9.28792 125.064 9.26012 125.066 9.23232C125.065 9.20362 125.07 9.17482 125.081 9.14842C125.093 9.12202 125.11 9.09862 125.133 9.08012C125.174 9.05422 125.223 9.04182 125.271 9.04442C125.321 9.04132 125.371 9.05332 125.414 9.07892C125.465 9.11342 125.475 9.17412 125.475 9.24312H125.11C125.11 9.31602 125.135 9.38102 125.273 9.38102C125.335 9.37962 125.397 9.37272 125.457 9.36042V9.39772C125.396 9.41062 125.333 9.41802 125.27 9.41992" fill="white"></path><path d="M125.594 9.41172V9.05482H125.628L125.631 9.07582C125.688 9.05712 125.748 9.04672 125.808 9.04492H125.813V9.08462H125.803C125.746 9.08582 125.69 9.09532 125.635 9.11272V9.41092L125.594 9.41172Z" fill="white"></path><path d="M126.055 9.08358C125.941 9.08358 125.902 9.13438 125.896 9.20768H126.216C126.213 9.12648 126.171 9.08358 126.058 9.08358H126.055ZM126.058 9.42188C126.005 9.42728 125.952 9.41318 125.91 9.38218C125.89 9.36318 125.875 9.34008 125.865 9.31448C125.856 9.28888 125.852 9.26148 125.854 9.23428C125.853 9.20548 125.858 9.17678 125.869 9.15038C125.881 9.12388 125.898 9.10048 125.92 9.08198C125.962 9.05618 126.01 9.04368 126.059 9.04638C126.109 9.04328 126.158 9.05528 126.201 9.08088C126.253 9.11538 126.263 9.17598 126.263 9.24498H125.898C125.898 9.31798 125.923 9.38298 126.061 9.38298C126.123 9.38148 126.185 9.37458 126.245 9.36238V9.39958C126.183 9.41248 126.121 9.41988 126.058 9.42188Z" fill="white"></path><path d="M126.714 9.10845C126.667 9.09235 126.619 9.08425 126.57 9.08465C126.447 9.08465 126.388 9.12625 126.388 9.23455C126.388 9.34275 126.436 9.38245 126.529 9.38245C126.591 9.37945 126.653 9.37035 126.714 9.35505V9.10845ZM126.721 9.41215L126.718 9.39075C126.655 9.40765 126.591 9.41815 126.526 9.42205C126.48 9.42555 126.436 9.41245 126.4 9.38515C126.379 9.36595 126.364 9.34235 126.354 9.31625C126.345 9.29015 126.341 9.26225 126.344 9.23455C126.341 9.20375 126.347 9.17295 126.361 9.14545C126.375 9.11805 126.397 9.09485 126.423 9.07865C126.467 9.05625 126.517 9.04515 126.567 9.04655C126.617 9.04715 126.666 9.05475 126.714 9.06915V8.90625H126.756V9.41215H126.721Z" fill="white"></path><path d="M127.366 9.08585C127.304 9.08865 127.242 9.09805 127.181 9.11395V9.35905C127.227 9.37585 127.276 9.38435 127.325 9.38395C127.449 9.38395 127.507 9.34235 127.507 9.23375C127.507 9.13185 127.459 9.08585 127.366 9.08585ZM127.472 9.39035C127.428 9.41225 127.379 9.42315 127.329 9.42205C127.275 9.42155 127.222 9.41245 127.171 9.39515V9.41215H127.142V8.90625H127.182V9.07475C127.243 9.05895 127.307 9.04915 127.37 9.04535C127.415 9.04225 127.46 9.05515 127.496 9.08185C127.516 9.10125 127.531 9.12485 127.541 9.15085C127.551 9.17695 127.554 9.20485 127.552 9.23255C127.554 9.26335 127.548 9.29435 127.534 9.32195C127.52 9.34955 127.499 9.37275 127.472 9.38915" fill="white"></path><path d="M127.604 9.55104V9.51134C127.624 9.51134 127.644 9.51494 127.657 9.51494C127.681 9.51694 127.705 9.51074 127.725 9.49744C127.745 9.48414 127.76 9.46454 127.768 9.44164L127.782 9.41344L127.596 9.05664H127.644L127.802 9.36344H127.805L127.957 9.05664H128.004L127.805 9.45584C127.769 9.52844 127.729 9.55224 127.657 9.55224C127.639 9.55304 127.622 9.55264 127.604 9.55104Z" fill="white"></path><path d="M128.578 9.20919H128.439V9.33409H128.578C128.673 9.33409 128.71 9.32339 128.71 9.27109C128.71 9.21879 128.66 9.20919 128.578 9.20919ZM128.552 9.00699H128.439V9.13389H128.553C128.647 9.13389 128.684 9.12279 128.684 9.06969C128.684 9.01649 128.637 9.00699 128.552 9.00699ZM128.767 9.37849C128.716 9.41069 128.654 9.41219 128.543 9.41219H128.332V8.92969H128.537C128.634 8.92969 128.693 8.92969 128.742 8.96059C128.759 8.97039 128.772 8.98459 128.781 9.00149C128.79 9.01849 128.793 9.03759 128.792 9.05659C128.793 9.08039 128.786 9.10389 128.773 9.12329C128.759 9.14279 128.739 9.15699 128.716 9.16359V9.16639C128.778 9.18029 128.818 9.21199 128.818 9.28059C128.819 9.30009 128.815 9.31959 128.806 9.33689C128.797 9.35419 128.783 9.36859 128.767 9.37849Z" fill="white"></path><path d="M129.239 9.26239C129.199 9.25879 129.155 9.25679 129.111 9.25679C129.039 9.25679 129.013 9.27149 129.013 9.30479C129.013 9.33809 129.034 9.35239 129.09 9.35239C129.14 9.35059 129.19 9.34359 129.239 9.33139V9.26239ZM129.26 9.41179L129.257 9.39039C129.194 9.40829 129.13 9.41879 129.064 9.42179C129.027 9.42429 128.989 9.41509 128.957 9.39559C128.944 9.38559 128.933 9.37259 128.926 9.35749C128.919 9.34249 128.916 9.32599 128.917 9.30949C128.916 9.28929 128.921 9.26929 128.932 9.25209C128.943 9.23489 128.959 9.22129 128.977 9.21319C129.02 9.19719 129.065 9.19049 129.111 9.19339C129.148 9.19339 129.198 9.19539 129.24 9.19809V9.19339C129.24 9.13789 129.203 9.11959 129.103 9.11959C129.063 9.11959 129.017 9.12159 128.972 9.12599V9.05379C129.022 9.04979 129.078 9.04709 129.125 9.04709C129.182 9.04199 129.239 9.05339 129.29 9.07999C129.33 9.10889 129.339 9.14899 129.339 9.20209V9.41259L129.26 9.41179Z" fill="white"></path><path d="M129.803 9.4119V9.2136C129.803 9.149 129.769 9.1256 129.71 9.1256C129.661 9.1277 129.613 9.1353 129.565 9.1482V9.4103H129.467V9.0534H129.547L129.55 9.0756C129.612 9.0577 129.676 9.0469 129.74 9.0435C129.784 9.0401 129.827 9.0531 129.862 9.08C129.877 9.0945 129.888 9.112 129.895 9.1312C129.901 9.1505 129.904 9.1711 129.902 9.1914V9.4091L129.803 9.4119Z" fill="white"></path><path d="M130.181 9.42201C130.134 9.42571 130.087 9.41231 130.048 9.38431C130.028 9.36521 130.013 9.34171 130.003 9.31551C129.993 9.28941 129.989 9.26141 129.992 9.23371C129.99 9.20431 129.996 9.17491 130.009 9.14831C130.021 9.12171 130.041 9.09881 130.065 9.08181C130.112 9.05521 130.166 9.04291 130.221 9.04651C130.261 9.04651 130.302 9.04931 130.346 9.05331V9.12941C130.31 9.12621 130.267 9.12301 130.233 9.12301C130.138 9.12301 130.094 9.15281 130.094 9.23451C130.094 9.31611 130.127 9.34431 130.205 9.34431C130.255 9.34271 130.305 9.33661 130.354 9.32611V9.39941C130.297 9.41251 130.239 9.42011 130.181 9.42201Z" fill="white"></path><path d="M130.649 9.12137C130.554 9.12137 130.513 9.15107 130.513 9.23197C130.513 9.31287 130.552 9.34737 130.649 9.34737C130.745 9.34737 130.783 9.31847 130.783 9.23757C130.783 9.15667 130.744 9.12137 130.649 9.12137ZM130.819 9.38467C130.767 9.41397 130.708 9.42707 130.649 9.42237C130.589 9.42697 130.53 9.41387 130.477 9.38467C130.454 9.36767 130.436 9.34487 130.424 9.31857C130.412 9.29227 130.408 9.26347 130.41 9.23477C130.408 9.20597 130.412 9.17697 130.424 9.15057C130.436 9.12417 130.454 9.10127 130.477 9.08407C130.53 9.05507 130.589 9.04207 130.649 9.04687C130.708 9.04227 130.767 9.05527 130.819 9.08407C130.842 9.10127 130.861 9.12407 130.872 9.15027C130.884 9.17657 130.888 9.20537 130.885 9.23397C130.888 9.26267 130.884 9.29157 130.872 9.31797C130.86 9.34437 130.842 9.36737 130.819 9.38467Z" fill="white"></path><path d="M131.458 9.42213C131.397 9.42603 131.335 9.40823 131.285 9.37183C131.227 9.32423 131.21 9.25003 131.21 9.17033C131.208 9.13073 131.216 9.09123 131.233 9.05543C131.25 9.01963 131.276 8.98863 131.308 8.96533C131.37 8.93093 131.441 8.91513 131.512 8.91973C131.565 8.91973 131.62 8.92333 131.68 8.92813V9.01493C131.629 9.01053 131.565 9.00703 131.516 9.00703C131.379 9.00703 131.32 9.05933 131.32 9.17033C131.32 9.28143 131.374 9.33453 131.476 9.33453C131.548 9.33213 131.62 9.32243 131.691 9.30553V9.39203C131.615 9.40983 131.537 9.41973 131.458 9.42213Z" fill="white"></path><path d="M131.983 9.10998C131.9 9.10998 131.869 9.13938 131.864 9.19368H132.102C132.099 9.13578 132.065 9.10998 131.983 9.10998ZM131.968 9.42208C131.915 9.42688 131.862 9.41288 131.818 9.38238C131.797 9.36358 131.782 9.34038 131.772 9.31458C131.762 9.28888 131.758 9.26118 131.76 9.23368C131.759 9.20528 131.764 9.17678 131.776 9.15078C131.787 9.12468 131.805 9.10178 131.827 9.08388C131.874 9.05568 131.928 9.04268 131.983 9.04658C132.037 9.04328 132.09 9.05568 132.137 9.08228C132.194 9.12188 132.199 9.18458 132.2 9.25788H131.862C131.864 9.31218 131.893 9.34708 131.993 9.34708C132.056 9.34568 132.12 9.33958 132.182 9.32888V9.39868C132.112 9.41208 132.04 9.41988 131.968 9.42208Z" fill="white"></path><path d="M132.641 9.4119V9.2136C132.641 9.149 132.608 9.1256 132.549 9.1256C132.5 9.1277 132.452 9.1353 132.404 9.1482V9.4103H132.305V9.0534H132.386L132.39 9.0756C132.451 9.0576 132.515 9.0468 132.579 9.0435C132.623 9.0401 132.667 9.0531 132.702 9.08C132.716 9.0945 132.727 9.112 132.734 9.1312C132.741 9.1505 132.743 9.1711 132.741 9.1914V9.4091L132.641 9.4119Z" fill="white"></path><path d="M133.023 9.42174C133.001 9.42384 132.979 9.42024 132.959 9.41144C132.938 9.40254 132.921 9.38854 132.908 9.37094C132.888 9.33854 132.879 9.30084 132.881 9.26314V9.12984H132.81V9.05614H132.881L132.892 8.94824H132.98V9.05614H133.12V9.12984H132.98V9.24404C132.979 9.26714 132.982 9.29014 132.99 9.31184C132.996 9.32334 133.005 9.33274 133.017 9.33864C133.029 9.34454 133.042 9.34664 133.055 9.34474C133.078 9.34434 133.102 9.34194 133.126 9.33764V9.40904C133.092 9.41644 133.057 9.42064 133.023 9.42174Z" fill="white"></path><path d="M133.217 9.41172V9.05482H133.297L133.3 9.07702C133.357 9.05792 133.416 9.04702 133.476 9.04492H133.489V9.12982C133.477 9.12982 133.464 9.12982 133.454 9.12982C133.407 9.12992 133.36 9.13612 133.315 9.14802V9.41092L133.217 9.41172Z" fill="white"></path><path d="M133.852 9.26239C133.81 9.25879 133.767 9.25679 133.723 9.25679C133.651 9.25679 133.625 9.27149 133.625 9.30479C133.625 9.33809 133.647 9.35239 133.702 9.35239C133.752 9.35059 133.803 9.34349 133.852 9.33139V9.26239ZM133.873 9.41179L133.869 9.39159C133.806 9.40949 133.741 9.41999 133.675 9.42299C133.638 9.42539 133.6 9.41629 133.568 9.39679C133.555 9.38679 133.544 9.37369 133.537 9.35869C133.53 9.34369 133.527 9.32719 133.528 9.31069C133.527 9.28989 133.533 9.26939 133.544 9.25189C133.555 9.23439 133.572 9.22089 133.591 9.21319C133.633 9.19759 133.679 9.19109 133.724 9.19419C133.761 9.19419 133.811 9.19619 133.853 9.19889V9.19339C133.853 9.13789 133.816 9.11959 133.716 9.11959C133.677 9.11959 133.63 9.12159 133.585 9.12599V9.05379C133.635 9.04979 133.692 9.04709 133.738 9.04709C133.795 9.04199 133.853 9.05339 133.903 9.07999C133.943 9.10889 133.952 9.14899 133.952 9.20209V9.41259L133.873 9.41179Z" fill="white"></path><path d="M134.078 8.90625H134.178V9.41215H134.078V8.90625Z" fill="white"></path><path d="M244.554 7.58203C244.355 7.58353 244.162 7.64863 244.006 7.76693C243.85 7.88533 243.74 8.05013 243.694 8.23513C243.648 8.42013 243.667 8.61463 243.75 8.78763C243.833 8.96063 243.974 9.10213 244.151 9.18953V10.2H244.89V9.22133C245.081 9.14663 245.239 9.01083 245.337 8.83733C245.435 8.66373 245.466 8.46313 245.427 8.26963C245.387 8.07613 245.278 7.90183 245.119 7.77653C244.96 7.65113 244.76 7.58233 244.554 7.58203Z" fill="white"></path><path d="M247.477 5.60735V4.09521C247.493 3.32921 247.191 2.58839 246.636 2.03485C246.082 1.48132 245.321 1.16014 244.519 1.1416C243.718 1.16014 242.956 1.48132 242.402 2.03485C241.848 2.58839 241.545 3.32921 241.561 4.09521V5.60735H240.452V11.6135C240.452 11.8009 240.53 11.9806 240.669 12.1131C240.807 12.2457 240.995 12.3201 241.192 12.3201H247.847C248.043 12.3201 248.231 12.2457 248.37 12.1131C248.508 11.9806 248.586 11.8009 248.586 11.6135V5.60735H247.477ZM242.301 4.09521C242.285 3.51659 242.509 2.95545 242.925 2.53442C243.341 2.11338 243.914 1.86668 244.519 1.84821C245.125 1.86668 245.698 2.11338 246.113 2.53442C246.529 2.95545 246.753 3.51659 246.738 4.09521V5.60735H242.301V4.09521ZM241.192 11.6135V6.31396H247.847V11.6135H241.192Z" fill="white"></path><path d="M159.524 6.54994C160.056 6.54994 160.509 6.36036 160.809 6.00894L160.421 5.63902C160.185 5.89796 159.894 6.02281 159.556 6.02281C158.886 6.02281 158.4 5.55117 158.4 4.88532C158.4 4.21947 158.886 3.74783 159.556 3.74783C159.894 3.74783 160.185 3.87268 160.421 4.12699L160.809 3.7617C160.509 3.41028 160.056 3.2207 159.529 3.2207C158.534 3.2207 157.795 3.91892 157.795 4.88532C157.795 5.85172 158.534 6.54994 159.524 6.54994Z" fill="white"></path><path d="M162.349 6.53614C163.117 6.53614 163.667 6.00901 163.667 5.26918C163.667 4.52935 163.117 4.00684 162.349 4.00684C161.591 4.00684 161.036 4.52935 161.036 5.26918C161.036 6.00901 161.591 6.53614 162.349 6.53614ZM162.349 6.04138C161.933 6.04138 161.619 5.74082 161.619 5.26918C161.619 4.79754 161.933 4.49698 162.349 4.49698C162.77 4.49698 163.084 4.79754 163.084 5.26918C163.084 5.74082 162.77 6.04138 162.349 6.04138Z" fill="white"></path><path d="M167.336 4.00684C166.943 4.00684 166.61 4.16406 166.412 4.41837C166.24 4.14094 165.94 4.00684 165.579 4.00684C165.242 4.00684 164.955 4.12706 164.77 4.34901V4.03459H164.22V6.50377H164.798V5.25068C164.798 4.76054 165.057 4.51085 165.441 4.51085C165.792 4.51085 165.995 4.72355 165.995 5.16283V6.50377H166.573V5.25068C166.573 4.76054 166.837 4.51085 167.216 4.51085C167.568 4.51085 167.771 4.72355 167.771 5.16283V6.50377H168.349V5.08884C168.349 4.34439 167.933 4.00684 167.336 4.00684Z" fill="white"></path><path d="M170.456 4.00684C170.119 4.00684 169.832 4.12244 169.638 4.35826V4.03459H169.088V7.40078H169.666V6.20321C169.864 6.42979 170.142 6.53614 170.456 6.53614C171.178 6.53614 171.709 6.03675 171.709 5.26918C171.709 4.50623 171.178 4.00684 170.456 4.00684ZM170.392 6.04138C169.975 6.04138 169.656 5.74082 169.656 5.26918C169.656 4.79754 169.975 4.49698 170.392 4.49698C170.808 4.49698 171.122 4.79754 171.122 5.26918C171.122 5.74082 170.808 6.04138 170.392 6.04138Z" fill="white"></path><path d="M172.808 4.39525V4.03459H172.258V6.50377H172.836V5.30617C172.836 4.80216 173.113 4.54322 173.552 4.54322C173.594 4.54322 173.635 4.54784 173.686 4.55709V4.00684C173.275 4.00684 172.974 4.13631 172.808 4.39525Z" fill="white"></path><path d="M175.106 4.00684C174.709 4.00684 174.325 4.10857 174.061 4.31202L174.288 4.7328C174.473 4.58021 174.76 4.48773 175.037 4.48773C175.449 4.48773 175.652 4.68656 175.652 5.02411V5.0611H175.014C174.265 5.0611 173.987 5.38478 173.987 5.79631C173.987 6.22633 174.343 6.53614 174.908 6.53614C175.277 6.53614 175.546 6.41592 175.684 6.20321V6.50377H176.23V5.05648C176.23 4.34439 175.818 4.00684 175.106 4.00684ZM175.028 6.11536C174.732 6.11536 174.556 5.98126 174.556 5.77319C174.556 5.59285 174.662 5.44489 175.056 5.44489H175.652V5.73157C175.555 5.98589 175.31 6.11536 175.028 6.11536Z" fill="white"></path><path d="M159.029 10.9376C159.917 10.9376 160.338 10.4937 160.338 9.9759C160.338 8.7875 158.419 9.236 158.419 8.5471C158.419 8.302 158.622 8.1078 159.122 8.1078C159.404 8.1078 159.723 8.191 160.014 8.3621L160.204 7.8951C159.922 7.7101 159.515 7.6084 159.126 7.6084C158.238 7.6084 157.822 8.0523 157.822 8.5748C157.822 9.777 159.746 9.3193 159.746 10.0175C159.746 10.2579 159.533 10.4383 159.029 10.4383C158.631 10.4383 158.22 10.2903 157.961 10.0822L157.753 10.5492C158.021 10.7804 158.525 10.9376 159.029 10.9376Z" fill="white"></path><path d="M163.199 9.67073C163.199 8.89853 162.672 8.39453 161.951 8.39453C161.216 8.39453 160.675 8.92163 160.675 9.65683C160.675 10.392 161.211 10.9238 162.039 10.9238C162.464 10.9238 162.811 10.7851 163.033 10.5215L162.723 10.1654C162.548 10.3458 162.33 10.4336 162.053 10.4336C161.623 10.4336 161.322 10.2024 161.253 9.84183H163.19C163.195 9.78633 163.199 9.71693 163.199 9.67073ZM161.951 8.85693C162.33 8.85693 162.603 9.10193 162.649 9.45803H161.248C161.304 9.09733 161.576 8.85693 161.951 8.85693Z" fill="white"></path><path d="M165.655 8.42223V8.75053C165.452 8.50553 165.147 8.39453 164.8 8.39453C164.092 8.39453 163.551 8.86613 163.551 9.58283C163.551 10.2995 164.092 10.7804 164.8 10.7804C165.133 10.7804 165.424 10.6741 165.627 10.4521V10.5816C165.627 11.081 165.387 11.3307 164.841 11.3307C164.499 11.3307 164.148 11.2151 163.93 11.0347L163.671 11.4694C163.954 11.7006 164.411 11.8208 164.874 11.8208C165.738 11.8208 166.205 11.4139 166.205 10.5169V8.42223H165.655ZM164.888 10.2903C164.448 10.2903 164.134 10.0036 164.134 9.58283C164.134 9.16673 164.448 8.88463 164.888 8.88463C165.322 8.88463 165.637 9.16673 165.637 9.58283C165.637 10.0036 165.322 10.2903 164.888 10.2903Z" fill="white"></path><path d="M168.778 8.42188V9.67037C168.778 10.1651 168.505 10.4148 168.103 10.4148C167.737 10.4148 167.525 10.2021 167.525 9.75358V8.42188H166.947V9.83218C166.947 10.5767 167.377 10.9235 168.01 10.9235C168.329 10.9235 168.621 10.8033 168.806 10.5767V10.8911H169.356V8.42188H168.778Z" fill="white"></path><path d="M170.663 8.78293V8.42223H170.113V10.8914H170.691V9.69383C170.691 9.18983 170.968 8.93093 171.407 8.93093C171.449 8.93093 171.491 8.93553 171.541 8.94473V8.39453C171.13 8.39453 170.829 8.52393 170.663 8.78293Z" fill="white"></path><path d="M172.961 8.39453C172.564 8.39453 172.18 8.49623 171.916 8.69973L172.143 9.12043C172.328 8.96783 172.615 8.87543 172.892 8.87543C173.304 8.87543 173.507 9.07423 173.507 9.41173V9.44873H172.869C172.12 9.44873 171.842 9.77243 171.842 10.1839C171.842 10.614 172.199 10.9238 172.763 10.9238C173.133 10.9238 173.401 10.8036 173.539 10.5909V10.8914H174.085V9.44413C174.085 8.73203 173.674 8.39453 172.961 8.39453ZM172.883 10.503C172.587 10.503 172.411 10.3689 172.411 10.1608C172.411 9.98053 172.518 9.83253 172.911 9.83253H173.507V10.1192C173.41 10.3735 173.165 10.503 172.883 10.503Z" fill="white"></path><path d="M205.821 6.54993C206.709 6.54993 207.13 6.10604 207.13 5.58815C207.13 4.3998 205.211 4.84832 205.211 4.15936C205.211 3.91429 205.414 3.72008 205.914 3.72008C206.196 3.72008 206.515 3.80331 206.806 3.9744L206.996 3.50738C206.714 3.32242 206.307 3.2207 205.918 3.2207C205.03 3.2207 204.614 3.66459 204.614 4.1871C204.614 5.38933 206.538 4.93156 206.538 5.62977C206.538 5.87022 206.325 6.05055 205.821 6.05055C205.423 6.05055 205.012 5.90258 204.753 5.69451L204.545 6.16152C204.813 6.39272 205.317 6.54993 205.821 6.54993Z" fill="white"></path><path d="M208.614 4.00684C208.216 4.00684 207.832 4.10856 207.569 4.31202L207.795 4.7328C207.98 4.58021 208.267 4.48773 208.544 4.48773C208.956 4.48773 209.159 4.68656 209.159 5.0241V5.0611H208.521C207.772 5.0611 207.495 5.38477 207.495 5.7963C207.495 6.22633 207.851 6.53613 208.415 6.53613C208.785 6.53613 209.053 6.41591 209.192 6.20321V6.50377H209.737V5.05647C209.737 4.34438 209.326 4.00684 208.614 4.00684ZM208.535 6.11535C208.239 6.11535 208.063 5.98126 208.063 5.77318C208.063 5.59285 208.17 5.44488 208.563 5.44488H209.159V5.73157C209.062 5.98588 208.817 6.11535 208.535 6.11535Z" fill="white"></path><path d="M211.801 5.95844C211.714 6.0278 211.598 6.06017 211.478 6.06017C211.256 6.06017 211.136 5.9307 211.136 5.69025V4.51577H211.797V4.05338H211.136V3.48926H210.558V4.05338H210.151V4.51577H210.558V5.70412C210.558 6.24975 210.867 6.53643 211.408 6.53643C211.616 6.53643 211.825 6.48095 211.963 6.36997L211.801 5.95844Z" fill="white"></path><path d="M212.73 3.62718C212.947 3.62718 213.1 3.46997 213.1 3.26652C213.1 3.07693 212.943 2.93359 212.73 2.93359C212.517 2.93359 212.36 3.08618 212.36 3.28039C212.36 3.47459 212.517 3.62718 212.73 3.62718ZM212.439 6.50328H213.017V4.03409H212.439V6.50328Z" fill="white"></path><path d="M214.538 6.53613C215.232 6.53613 215.657 6.23558 215.657 5.77318C215.657 4.80678 214.131 5.25068 214.131 4.75129C214.131 4.58945 214.298 4.47385 214.649 4.47385C214.885 4.47385 215.121 4.52009 215.357 4.65881L215.579 4.21954C215.357 4.08544 214.982 4.00684 214.654 4.00684C213.988 4.00684 213.567 4.31202 213.567 4.77903C213.567 5.76393 215.093 5.32004 215.093 5.79168C215.093 5.96276 214.941 6.06449 214.575 6.06449C214.265 6.06449 213.933 5.96276 213.715 5.81942L213.493 6.2587C213.715 6.41591 214.127 6.53613 214.538 6.53613Z" fill="white"></path><path d="M217.158 3.50706C217.279 3.50706 217.39 3.54868 217.477 3.60879L217.639 3.17414C217.51 3.08166 217.316 3.04004 217.117 3.04004C216.543 3.04004 216.234 3.37759 216.234 3.89547V4.05269H215.827V4.51508H216.234V6.50338H216.812V4.51508H217.473V4.05269H216.793V3.90472C216.793 3.64116 216.918 3.50706 217.158 3.50706Z" fill="white"></path><path d="M218.76 4.00684C218.362 4.00684 217.979 4.10856 217.715 4.31202L217.942 4.7328C218.127 4.58021 218.413 4.48773 218.691 4.48773C219.102 4.48773 219.306 4.68656 219.306 5.0241V5.0611H218.668C217.918 5.0611 217.641 5.38477 217.641 5.7963C217.641 6.22633 217.997 6.53613 218.561 6.53613C218.931 6.53613 219.199 6.41591 219.338 6.20321V6.50377H219.884V5.05647C219.884 4.34438 219.472 4.00684 218.76 4.00684ZM218.681 6.11535C218.385 6.11535 218.21 5.98126 218.21 5.77318C218.21 5.59285 218.316 5.44488 218.709 5.44488H219.306V5.73157C219.209 5.98588 218.963 6.11535 218.681 6.11535Z" fill="white"></path><path d="M221.776 6.04137C221.351 6.04137 221.027 5.75006 221.027 5.26917C221.027 4.79291 221.351 4.49697 221.776 4.49697C222.021 4.49697 222.243 4.60333 222.391 4.83915L222.835 4.58021C222.646 4.20567 222.262 4.00684 221.781 4.00684C220.999 4.00684 220.445 4.52934 220.445 5.26917C220.445 5.92115 220.875 6.40666 221.508 6.51301L221.392 6.94304H221.536C221.712 6.94304 221.781 7.0078 221.781 7.0956C221.781 7.1974 221.707 7.2621 221.536 7.2621C221.42 7.2621 221.318 7.239 221.221 7.1881L221.115 7.4609C221.231 7.5257 221.374 7.558 221.54 7.558C221.92 7.558 222.169 7.3869 222.169 7.1187C222.169 6.91992 222.04 6.76271 221.767 6.73034L221.818 6.53613C222.28 6.52689 222.65 6.31881 222.835 5.95814L222.391 5.6992C222.243 5.93502 222.021 6.04137 221.776 6.04137Z" fill="white"></path><path d="M224.033 3.39197C224.199 3.39197 224.357 3.69715 224.662 3.69715C224.958 3.69715 225.152 3.45208 225.161 3.09142H224.851C224.842 3.25788 224.754 3.35498 224.625 3.35498C224.458 3.35498 224.301 3.0498 223.996 3.0498C223.7 3.0498 223.506 3.29025 223.497 3.66941H223.806C223.816 3.4937 223.904 3.39197 224.033 3.39197ZM224.278 4.00696C223.88 4.00696 223.497 4.10868 223.233 4.31214L223.46 4.73292C223.645 4.58033 223.931 4.48785 224.209 4.48785C224.62 4.48785 224.824 4.68668 224.824 5.02422V5.06122H224.186C223.437 5.06122 223.159 5.38489 223.159 5.79642C223.159 6.22645 223.515 6.53625 224.079 6.53625C224.449 6.53625 224.717 6.41603 224.856 6.20333V6.50389H225.402V5.05659C225.402 4.3445 224.99 4.00696 224.278 4.00696ZM224.199 6.11547C223.904 6.11547 223.728 5.98138 223.728 5.7733C223.728 5.59297 223.834 5.445 224.227 5.445H224.824V5.73169C224.727 5.986 224.482 6.11547 224.199 6.11547Z" fill="white"></path><path d="M227.276 6.53613C228.043 6.53613 228.594 6.009 228.594 5.26917C228.594 4.52934 228.043 4.00684 227.276 4.00684C226.517 4.00684 225.963 4.52934 225.963 5.26917C225.963 6.009 226.517 6.53613 227.276 6.53613ZM227.276 6.04137C226.86 6.04137 226.545 5.74081 226.545 5.26917C226.545 4.79753 226.86 4.49697 227.276 4.49697C227.697 4.49697 228.011 4.79753 228.011 5.26917C228.011 5.74081 227.697 6.04137 227.276 6.04137Z" fill="white"></path><path d="M207.028 10.243C206.82 10.3633 206.593 10.4095 206.362 10.4095C205.678 10.4095 205.192 9.92862 205.192 9.27202C205.192 8.60152 205.678 8.13452 206.367 8.13452C206.714 8.13452 207.005 8.25012 207.259 8.50442L207.638 8.13452C207.333 7.78772 206.88 7.60742 206.339 7.60742C205.326 7.60742 204.587 8.30562 204.587 9.27202C204.587 10.2384 205.326 10.9366 206.33 10.9366C206.788 10.9366 207.259 10.7979 207.597 10.5251V9.23502H207.028V10.243Z" fill="white"></path><path d="M209.277 8.39355C208.88 8.39355 208.496 8.49526 208.232 8.69866L208.459 9.11946C208.644 8.96686 208.931 8.87436 209.208 8.87436C209.62 8.87436 209.823 9.07326 209.823 9.41076V9.44775H209.185C208.436 9.44775 208.158 9.77145 208.158 10.183C208.158 10.613 208.514 10.9229 209.079 10.9229C209.448 10.9229 209.717 10.8026 209.855 10.5899V10.8905H210.401V9.44316C210.401 8.73106 209.989 8.39355 209.277 8.39355ZM209.199 10.5021C208.903 10.5021 208.727 10.368 208.727 10.1599C208.727 9.97955 208.833 9.83156 209.226 9.83156H209.823V10.1183C209.726 10.3726 209.481 10.5021 209.199 10.5021Z" fill="white"></path><path d="M211.693 8.78195V8.42126H211.143V10.8905H211.721V9.69285C211.721 9.18885 211.998 8.92986 212.437 8.92986C212.479 8.92986 212.521 8.93456 212.572 8.94376V8.39355C212.16 8.39355 211.859 8.52295 211.693 8.78195Z" fill="white"></path><path d="M213.992 8.39355C213.594 8.39355 213.21 8.49526 212.947 8.69866L213.173 9.11946C213.358 8.96686 213.645 8.87436 213.922 8.87436C214.334 8.87436 214.537 9.07326 214.537 9.41076V9.44775H213.899C213.15 9.44775 212.873 9.77145 212.873 10.183C212.873 10.613 213.229 10.9229 213.793 10.9229C214.163 10.9229 214.431 10.8026 214.57 10.5899V10.8905H215.115V9.44316C215.115 8.73106 214.704 8.39355 213.992 8.39355ZM213.913 10.5021C213.617 10.5021 213.441 10.368 213.441 10.1599C213.441 9.97955 213.548 9.83156 213.941 9.83156H214.537V10.1183C214.44 10.3726 214.195 10.5021 213.913 10.5021Z" fill="white"></path><path d="M217.258 8.39355C216.897 8.39355 216.597 8.51376 216.407 8.74026V8.42126H215.857V10.8905H216.435V9.64196C216.435 9.14726 216.712 8.89756 217.124 8.89756C217.494 8.89756 217.711 9.11025 217.711 9.54945V10.8905H218.289V9.47556C218.289 8.73106 217.85 8.39355 217.258 8.39355Z" fill="white"></path><path d="M220.345 10.3452C220.257 10.4145 220.141 10.4469 220.021 10.4469C219.799 10.4469 219.679 10.3174 219.679 10.077V8.90248H220.34V8.44008H219.679V7.87598H219.101V8.44008H218.694V8.90248H219.101V10.0908C219.101 10.6365 219.411 10.9232 219.952 10.9232C220.16 10.9232 220.368 10.8677 220.507 10.7567L220.345 10.3452Z" fill="white"></path><path d="M221.273 8.01489C221.491 8.01489 221.643 7.85769 221.643 7.65419C221.643 7.46459 221.486 7.32129 221.273 7.32129C221.061 7.32129 220.904 7.47389 220.904 7.66809C220.904 7.86229 221.061 8.01489 221.273 8.01489ZM220.982 10.891H221.56V8.42179H220.982V10.891Z" fill="white"></path><path d="M224.159 7.45996V8.72696C223.965 8.50036 223.683 8.39406 223.364 8.39406C222.647 8.39406 222.115 8.88876 222.115 9.65636C222.115 10.424 222.647 10.9234 223.364 10.9234C223.701 10.9234 223.988 10.8078 224.182 10.5719V10.891H224.737V7.45996H224.159ZM223.433 10.4286C223.017 10.4286 222.698 10.128 222.698 9.65636C222.698 9.18466 223.017 8.88416 223.433 8.88416C223.849 8.88416 224.168 9.18466 224.168 9.65636C224.168 10.128 223.849 10.4286 223.433 10.4286Z" fill="white"></path><path d="M226.437 8.39355C226.039 8.39355 225.655 8.49526 225.391 8.69866L225.618 9.11946C225.803 8.96686 226.09 8.87436 226.367 8.87436C226.779 8.87436 226.982 9.07326 226.982 9.41076V9.44775H226.344C225.595 9.44775 225.318 9.77145 225.318 10.183C225.318 10.613 225.674 10.9229 226.238 10.9229C226.608 10.9229 226.876 10.8026 227.014 10.5899V10.8905H227.56V9.44316C227.56 8.73106 227.149 8.39355 226.437 8.39355ZM226.358 10.5021C226.062 10.5021 225.886 10.368 225.886 10.1599C225.886 9.97955 225.993 9.83156 226.386 9.83156H226.982V10.1183C226.885 10.3726 226.64 10.5021 226.358 10.5021Z" fill="white"></path><path d="M254.89 3.2666H253.559V6.50336H254.16V5.56932H254.89C255.741 5.56932 256.268 5.13004 256.268 4.41796C256.268 3.70125 255.741 3.2666 254.89 3.2666ZM254.863 5.06069H254.16V3.77523H254.863C255.39 3.77523 255.662 4.01105 255.662 4.41796C255.662 4.82486 255.39 5.06069 254.863 5.06069Z" fill="white"></path><path d="M257.341 4.39525V4.03458H256.79V6.50377H257.368V5.30616C257.368 4.80215 257.646 4.54321 258.085 4.54321C258.127 4.54321 258.168 4.54784 258.219 4.55709V4.00684C257.808 4.00684 257.507 4.13631 257.341 4.39525Z" fill="white"></path><path d="M259.001 3.62718C259.218 3.62718 259.371 3.46997 259.371 3.26652C259.371 3.07693 259.214 2.93359 259.001 2.93359C258.788 2.93359 258.631 3.08618 258.631 3.28039C258.631 3.47459 258.788 3.62718 259.001 3.62718ZM258.71 6.50328H259.288V4.03409H258.71V6.50328Z" fill="white"></path><path d="M261.803 4.03418L261.013 5.86526L260.245 4.03418H259.644L260.703 6.50337H261.299L262.358 4.03418H261.803Z" fill="white"></path><path d="M263.586 4.00684C263.188 4.00684 262.804 4.10856 262.541 4.31202L262.767 4.7328C262.952 4.58021 263.239 4.48773 263.517 4.48773C263.928 4.48773 264.132 4.68656 264.132 5.0241V5.0611H263.493C262.744 5.0611 262.467 5.38477 262.467 5.7963C262.467 6.22633 262.823 6.53613 263.387 6.53613C263.757 6.53613 264.025 6.41591 264.164 6.20321V6.50377H264.71V5.05647C264.71 4.34438 264.298 4.00684 263.586 4.00684ZM263.507 6.11535C263.211 6.11535 263.036 5.98126 263.036 5.77318C263.036 5.59285 263.142 5.44488 263.535 5.44488H264.132V5.73157C264.034 5.98588 263.789 6.11535 263.507 6.11535Z" fill="white"></path><path d="M266.607 6.53613C267.088 6.53613 267.471 6.32806 267.661 5.95814L267.217 5.6992C267.069 5.93502 266.847 6.04137 266.602 6.04137C266.177 6.04137 265.853 5.75006 265.853 5.26917C265.853 4.79291 266.177 4.49697 266.602 4.49697C266.847 4.49697 267.069 4.60332 267.217 4.83915L267.661 4.58021C267.471 4.20567 267.088 4.00684 266.607 4.00684C265.825 4.00684 265.27 4.52934 265.27 5.26917C265.27 6.009 265.825 6.53613 266.607 6.53613Z" fill="white"></path><path d="M268.452 3.62718C268.669 3.62718 268.822 3.46997 268.822 3.26652C268.822 3.07693 268.665 2.93359 268.452 2.93359C268.239 2.93359 268.082 3.08618 268.082 3.28039C268.082 3.47459 268.239 3.62718 268.452 3.62718ZM268.161 6.50328H268.739V4.03409H268.161V6.50328Z" fill="white"></path><path d="M271.338 3.07324V4.3402C271.143 4.11363 270.861 4.00728 270.542 4.00728C269.826 4.00728 269.294 4.50204 269.294 5.26961C269.294 6.03719 269.826 6.53657 270.542 6.53657C270.88 6.53657 271.166 6.42097 271.361 6.18515V6.50421H271.916V3.07324H271.338ZM270.612 6.04181C270.195 6.04181 269.876 5.74125 269.876 5.26961C269.876 4.79797 270.195 4.49741 270.612 4.49741C271.028 4.49741 271.347 4.79797 271.347 5.26961C271.347 5.74125 271.028 6.04181 270.612 6.04181Z" fill="white"></path><path d="M273.615 4.00684C273.217 4.00684 272.834 4.10856 272.57 4.31202L272.797 4.7328C272.981 4.58021 273.268 4.48773 273.546 4.48773C273.957 4.48773 274.161 4.68656 274.161 5.0241V5.0611H273.523C272.773 5.0611 272.496 5.38477 272.496 5.7963C272.496 6.22633 272.852 6.53613 273.416 6.53613C273.786 6.53613 274.054 6.41591 274.193 6.20321V6.50377H274.739V5.05647C274.739 4.34438 274.327 4.00684 273.615 4.00684ZM273.536 6.11535C273.24 6.11535 273.065 5.98126 273.065 5.77318C273.065 5.59285 273.171 5.44488 273.564 5.44488H274.161V5.73157C274.064 5.98588 273.818 6.11535 273.536 6.11535Z" fill="white"></path><path d="M277.343 3.07324V4.3402C277.149 4.11363 276.867 4.00728 276.548 4.00728C275.831 4.00728 275.3 4.50204 275.3 5.26961C275.3 6.03719 275.831 6.53657 276.548 6.53657C276.886 6.53657 277.172 6.42097 277.366 6.18515V6.50421H277.921V3.07324H277.343ZM276.617 6.04181C276.201 6.04181 275.882 5.74125 275.882 5.26961C275.882 4.79797 276.201 4.49741 276.617 4.49741C277.033 4.49741 277.353 4.79797 277.353 5.26961C277.353 5.74125 277.033 6.04181 276.617 6.04181Z" fill="white"></path><path d="M280.999 5.28304C280.999 4.51085 280.471 4.00684 279.75 4.00684C279.015 4.00684 278.474 4.53397 278.474 5.26917C278.474 6.00438 279.01 6.53613 279.838 6.53613C280.263 6.53613 280.61 6.39741 280.832 6.13385L280.522 5.77781C280.347 5.95814 280.129 6.04599 279.852 6.04599C279.422 6.04599 279.121 5.8148 279.052 5.45413H280.989C280.994 5.39864 280.999 5.32928 280.999 5.28304ZM279.75 4.46923C280.129 4.46923 280.402 4.7143 280.448 5.07034H279.047C279.103 4.70968 279.376 4.46923 279.75 4.46923Z" fill="white"></path><path d="M254.89 7.65332H253.559V10.8901H254.16V9.95602H254.89C255.741 9.95602 256.268 9.51682 256.268 8.80472C256.268 8.08802 255.741 7.65332 254.89 7.65332ZM254.863 9.44742H254.16V8.16202H254.863C255.39 8.16202 255.662 8.39782 255.662 8.80472C255.662 9.21162 255.39 9.44742 254.863 9.44742Z" fill="white"></path><path d="M257.341 8.78195V8.42126H256.79V10.8905H257.368V9.69285C257.368 9.18885 257.646 8.92986 258.085 8.92986C258.127 8.92986 258.168 8.93456 258.219 8.94376V8.39355C257.808 8.39355 257.507 8.52295 257.341 8.78195Z" fill="white"></path><path d="M259.797 10.9228C260.564 10.9228 261.115 10.3957 261.115 9.65586C261.115 8.91606 260.564 8.39355 259.797 8.39355C259.038 8.39355 258.484 8.91606 258.484 9.65586C258.484 10.3957 259.038 10.9228 259.797 10.9228ZM259.797 10.4281C259.381 10.4281 259.066 10.1275 259.066 9.65586C259.066 9.18416 259.381 8.88365 259.797 8.88365C260.218 8.88365 260.532 9.18416 260.532 9.65586C260.532 10.1275 260.218 10.4281 259.797 10.4281Z" fill="white"></path><path d="M262.99 10.3452C262.902 10.4145 262.786 10.4469 262.666 10.4469C262.444 10.4469 262.324 10.3174 262.324 10.077V8.90248H262.985V8.44008H262.324V7.87598H261.746V8.44008H261.339V8.90248H261.746V10.0908C261.746 10.6365 262.056 10.9231 262.597 10.9231C262.805 10.9231 263.013 10.8677 263.152 10.7567L262.99 10.3452Z" fill="white"></path><path d="M265.867 9.66975C265.867 8.89755 265.34 8.39355 264.618 8.39355C263.883 8.39355 263.342 8.92066 263.342 9.65586C263.342 10.3911 263.879 10.9228 264.706 10.9228C265.132 10.9228 265.479 10.7841 265.7 10.5206L265.391 10.1645C265.215 10.3449 264.998 10.4327 264.72 10.4327C264.29 10.4327 263.99 10.2015 263.92 9.84076H265.858C265.862 9.78536 265.867 9.71595 265.867 9.66975ZM264.618 8.85585C264.998 8.85585 265.27 9.10096 265.317 9.45706H263.916C263.971 9.09636 264.244 8.85585 264.618 8.85585Z" fill="white"></path><path d="M268.323 8.42126V8.74955C268.119 8.50445 267.814 8.39355 267.467 8.39355C266.76 8.39355 266.219 8.86515 266.219 9.58185C266.219 10.2986 266.76 10.7795 267.467 10.7795C267.8 10.7795 268.091 10.6732 268.295 10.4512V10.5807C268.295 11.0801 268.054 11.3298 267.509 11.3298C267.167 11.3298 266.815 11.2142 266.598 11.0338L266.339 11.4685C266.621 11.6997 267.079 11.8199 267.541 11.8199C268.406 11.8199 268.873 11.413 268.873 10.5159V8.42126H268.323ZM267.555 10.2894C267.116 10.2894 266.801 10.0027 266.801 9.58185C266.801 9.16575 267.116 8.88365 267.555 8.88365C267.99 8.88365 268.304 9.16575 268.304 9.58185C268.304 10.0027 267.99 10.2894 267.555 10.2894Z" fill="white"></path><path d="M269.924 8.01489C270.141 8.01489 270.294 7.85769 270.294 7.65419C270.294 7.46459 270.137 7.32129 269.924 7.32129C269.711 7.32129 269.554 7.47389 269.554 7.66809C269.554 7.86229 269.711 8.01489 269.924 8.01489ZM269.633 10.891H270.211V8.42179H269.633V10.891Z" fill="white"></path><path d="M272.81 7.45996V8.72696C272.615 8.50036 272.333 8.39406 272.014 8.39406C271.298 8.39406 270.766 8.88876 270.766 9.65636C270.766 10.424 271.298 10.9233 272.014 10.9233C272.352 10.9233 272.639 10.8078 272.833 10.5719V10.891H273.388V7.45996H272.81ZM272.084 10.4286C271.668 10.4286 271.348 10.128 271.348 9.65636C271.348 9.18466 271.668 8.88416 272.084 8.88416C272.5 8.88416 272.819 9.18466 272.819 9.65636C272.819 10.128 272.5 10.4286 272.084 10.4286Z" fill="white"></path><path d="M275.087 8.39355C274.689 8.39355 274.306 8.49526 274.042 8.69866L274.269 9.11946C274.454 8.96686 274.74 8.87436 275.018 8.87436C275.429 8.87436 275.633 9.07326 275.633 9.41076V9.44775H274.995C274.246 9.44775 273.968 9.77145 273.968 10.183C273.968 10.613 274.324 10.9228 274.888 10.9228C275.258 10.9228 275.526 10.8026 275.665 10.5899V10.8905H276.211V9.44316C276.211 8.73106 275.799 8.39355 275.087 8.39355ZM275.008 10.5021C274.713 10.5021 274.537 10.368 274.537 10.1599C274.537 9.97955 274.643 9.83156 275.036 9.83156H275.633V10.1183C275.536 10.3726 275.291 10.5021 275.008 10.5021Z" fill="white"></path><path d="M148.416 1.1416L143.455 2.7219V7.4628C143.455 10.0814 145.676 12.2037 148.416 12.2037C151.157 12.2037 153.378 10.0814 153.378 7.4628V2.7219L148.416 1.1416ZM152.447 7.4628C152.447 9.59 150.642 11.3147 148.416 11.3147C146.19 11.3147 144.385 9.59 144.385 7.4628V3.38858L148.416 2.03052L152.447 3.38858V7.4628Z" fill="white"></path><path d="M146.69 6.21796C146.647 6.17658 146.596 6.14374 146.539 6.12134C146.483 6.09893 146.423 6.0874 146.361 6.0874C146.3 6.0874 146.24 6.09893 146.183 6.12134C146.127 6.14374 146.076 6.17658 146.033 6.21796C145.989 6.25916 145.955 6.30812 145.932 6.36204C145.908 6.41596 145.896 6.47378 145.896 6.53217C145.896 6.59056 145.908 6.64838 145.932 6.7023C145.955 6.75622 145.989 6.80518 146.033 6.84638L147.704 8.44398L147.732 8.46988C147.772 8.50888 147.821 8.53988 147.874 8.56098C147.927 8.58218 147.985 8.59308 148.042 8.59308C148.1 8.59308 148.157 8.58218 148.211 8.56098C148.264 8.53988 148.312 8.50888 148.353 8.46988L151.241 5.71054C151.282 5.67158 151.314 5.62529 151.336 5.57434C151.358 5.52339 151.37 5.46878 151.37 5.41362C151.37 5.35846 151.358 5.30384 151.336 5.2529C151.314 5.20195 151.282 5.15566 151.241 5.1167L151.205 5.08213C151.164 5.04309 151.115 5.01212 151.062 4.99099C151.009 4.96985 150.952 4.95898 150.894 4.95898C150.836 4.95898 150.779 4.96985 150.726 4.99099C150.672 5.01212 150.624 5.04309 150.583 5.08213L148.042 7.50938L146.69 6.21796Z" fill="white"></path><path fill-rule="evenodd" clip-rule="evenodd" d="M190.648 6.00663C189.995 5.91703 189.398 5.60549 188.966 5.12914C188.534 4.65278 188.296 4.04356 188.296 3.41321V3.06388C188.296 2.38898 188.87 1.84124 189.576 1.84124H190.567C190.734 1.43252 191.149 1.14258 191.636 1.14258H196.655C196.886 1.1427 197.111 1.20946 197.302 1.33411C197.493 1.45876 197.64 1.63551 197.724 1.84124H198.715C199.421 1.84124 199.995 2.38898 199.995 3.06388V3.41321C199.995 4.04356 199.757 4.65278 199.325 5.12914C198.893 5.60549 198.295 5.91703 197.642 6.00663C197.488 6.48728 197.227 6.93056 196.878 7.30629C196.528 7.68209 196.098 7.98159 195.617 8.18429L195.722 9.19459C195.725 9.22949 195.744 9.27839 195.805 9.33709C195.868 9.39789 195.964 9.45589 196.078 9.49569C196.285 9.56769 196.53 9.68719 196.729 9.89259C196.937 10.1091 197.07 10.3977 197.07 10.7491V11.2731H197.984C198.129 11.2731 198.269 11.3283 198.372 11.4266C198.475 11.5248 198.532 11.6581 198.532 11.7971C198.532 11.9361 198.475 12.0694 198.372 12.1676C198.269 12.2659 198.129 12.3211 197.984 12.3211H190.307C190.162 12.3211 190.022 12.2659 189.919 12.1676C189.816 12.0694 189.759 11.9361 189.759 11.7971C189.759 11.6581 189.816 11.5248 189.919 11.4266C190.022 11.3283 190.162 11.2731 190.307 11.2731H191.221V10.7491C191.221 10.3977 191.354 10.1091 191.563 9.89259C191.761 9.68719 192.006 9.56769 192.213 9.49569C192.315 9.46209 192.408 9.40799 192.486 9.33709C192.547 9.27769 192.565 9.23019 192.569 9.19459L192.674 8.18429C192.193 7.98149 191.763 7.68199 191.414 7.30619C191.064 6.93045 190.803 6.48722 190.649 6.00663H190.648ZM190.49 2.88922H189.576C189.527 2.88922 189.481 2.90762 189.447 2.94038C189.412 2.97313 189.393 3.01756 189.393 3.06388V3.41321C189.393 4.0979 189.851 4.67988 190.49 4.89576V2.88922ZM193.748 8.45749L193.661 9.29869C193.593 9.94499 193.033 10.3257 192.588 10.4801C192.506 10.5045 192.431 10.5465 192.369 10.6031C192.342 10.631 192.318 10.6681 192.318 10.7498V11.2738H195.973V10.7498C195.973 10.6681 195.949 10.631 195.922 10.6031C195.86 10.5465 195.785 10.5044 195.703 10.4801C195.258 10.3257 194.698 9.94499 194.631 9.29939L194.543 8.45819C194.279 8.48549 194.013 8.48479 193.748 8.45749ZM197.801 4.89646V2.88922H198.715C198.764 2.88922 198.81 2.90762 198.844 2.94038C198.879 2.97313 198.898 3.01756 198.898 3.06388V3.41321C198.898 3.73837 198.793 4.05556 198.596 4.32108C198.4 4.58659 198.122 4.78808 197.801 4.89646ZM191.586 2.23807C191.586 2.21222 191.608 2.19056 191.636 2.19056H196.655C196.682 2.19056 196.704 2.21152 196.704 2.23807V4.98519C196.704 5.63372 196.435 6.25569 195.955 6.71428C195.475 7.17289 194.824 7.43049 194.145 7.43049C193.467 7.43049 192.816 7.17289 192.336 6.71428C191.856 6.25569 191.586 5.63372 191.586 4.98519V2.23807Z" fill="white"></path><path d="M194.145 2.81836L194.539 3.97698H195.814L194.782 4.69305L195.176 5.85167L194.145 5.13561L193.113 5.85167L193.507 4.69305L192.476 3.97698H193.751L194.145 2.81836Z" fill="white"></path></svg>